<?xml version="1.0" encoding="UTF-8" standalone="no"?>
<!-- Created with Inkscape (http://www.inkscape.org/) -->

<svg
   xmlns:ns0="http://www.iki.fi/pav/software/textext/"
   xmlns:dc="http://purl.org/dc/elements/1.1/"
   xmlns:cc="http://creativecommons.org/ns#"
   xmlns:rdf="http://www.w3.org/1999/02/22-rdf-syntax-ns#"
   xmlns:svg="http://www.w3.org/2000/svg"
   xmlns="http://www.w3.org/2000/svg"
   xmlns:xlink="http://www.w3.org/1999/xlink"
   xmlns:sodipodi="http://sodipodi.sourceforge.net/DTD/sodipodi-0.dtd"
   xmlns:inkscape="http://www.inkscape.org/namespaces/inkscape"
   width="744.09448819"
   height="1052.3622047"
   id="svg2"
   version="1.1"
   inkscape:version="0.48.4 r9939"
   sodipodi:docname="tutorialhierarchy.svg">
  <sodipodi:namedview
     id="base"
     pagecolor="#ffffff"
     bordercolor="#666666"
     borderopacity="1.0"
     inkscape:pageopacity="0.0"
     inkscape:pageshadow="2"
     inkscape:zoom="5.6"
     inkscape:cx="207.90258"
     inkscape:cy="742.96504"
     inkscape:document-units="px"
     inkscape:current-layer="layer1"
     showgrid="true"
     inkscape:window-width="1276"
     inkscape:window-height="1378"
     inkscape:window-x="0"
     inkscape:window-y="0"
     inkscape:window-maximized="0">
    <inkscape:grid
       snapvisiblegridlinesonly="true"
       enabled="true"
       visible="true"
       empspacing="5"
       id="grid2985"
       type="xygrid" />
  </sodipodi:namedview>
  <defs
     id="defs4">
    <marker
       style="overflow:visible;"
       id="Arrow1Mend"
       refX="0.0"
       refY="0.0"
       orient="auto"
       inkscape:stockid="Arrow1Mend">
      <path
         transform="scale(0.4) rotate(180) translate(10,0)"
         style="fill-rule:evenodd;stroke:#000000;stroke-width:1.0pt;"
         d="M 0.0,0.0 L 5.0,-5.0 L -12.5,0.0 L 5.0,5.0 L 0.0,0.0 z "
         id="path3808" />
    </marker>
    <marker
       style="overflow:visible;"
       id="Arrow2Mend"
       refX="0.0"
       refY="0.0"
       orient="auto"
       inkscape:stockid="Arrow2Mend">
      <path
         transform="scale(0.6) rotate(180) translate(0,0)"
         d="M 8.7185878,4.0337352 L -2.2072895,0.016013256 L 8.7185884,-4.0017078 C 6.9730900,-1.6296469 6.9831476,1.6157441 8.7185878,4.0337352 z "
         style="fill-rule:evenodd;stroke-width:0.62500000;stroke-linejoin:round;"
         id="path3826" />
    </marker>
    <marker
       style="overflow:visible"
       id="TriangleOutM"
       refX="0.0"
       refY="0.0"
       orient="auto"
       inkscape:stockid="TriangleOutM">
      <path
         transform="scale(0.4)"
         style="fill-rule:evenodd;stroke:#000000;stroke-width:1.0pt"
         d="M 5.77,0.0 L -2.88,5.0 L -2.88,-5.0 L 5.77,0.0 z "
         id="path3944" />
    </marker>
  </defs>
  <metadata
     id="metadata7">
    <rdf:RDF>
      <cc:Work
         rdf:about="">
        <dc:format>image/svg+xml</dc:format>
        <dc:type
           rdf:resource="http://purl.org/dc/dcmitype/StillImage" />
        <dc:title />
      </cc:Work>
    </rdf:RDF>
  </metadata>
  <g
     id="layer1"
     inkscape:groupmode="layer"
     inkscape:label="Layer 1">
    <path
       sodipodi:nodetypes="ccccccccc"
       inkscape:connector-curvature="0"
       id="path2987"
       d="m 225,287.36218 20,0 15,-15 0,-20 -15,-15 -20,0 -15,15 0,20 z"
       style="fill:#00ff00;stroke:#000000;stroke-width:1px;stroke-linecap:butt;stroke-linejoin:miter;stroke-opacity:1" />
    <path
       sodipodi:nodetypes="ccccccccc"
       inkscape:connector-curvature="0"
       id="path2987-9"
       d="m 225,382.36218 20,0 15,-15 0,-20 -15,-15 -20,0 -15,15 0,20 z"
       style="fill:#00ff00;stroke:#000000;stroke-width:1px;stroke-linecap:butt;stroke-linejoin:miter;stroke-opacity:1" />
    <path
       sodipodi:nodetypes="cc"
       inkscape:connector-curvature="0"
       id="path3025"
       d="m 235,287.36218 0,43"
       style="fill:none;stroke:#000000;stroke-width:1px;stroke-linecap:butt;stroke-linejoin:miter;stroke-opacity:1;marker-end:url(#Arrow1Mend)" />
    <g
       transform="matrix(2,0,0,2,-217.07602,-0.41316224)"
       ns0:text="1"
       ns0:preamble="/home/tanakas/Documents/02_PRESENTATIONS/2012_10_01_cell_based_presentation/inkscapeheader.tex"
       id="g5078">
      <defs
         id="defs5080">
        <g
           id="g5082">
          <symbol
             style="overflow:visible"
             overflow="visible"
             id="textext-df0d6824-0">
            <path
               inkscape:connector-curvature="0"
               style="stroke:none"
               d=""
               id="path5085" />
          </symbol>
          <symbol
             style="overflow:visible"
             overflow="visible"
             id="textext-df0d6824-1">
            <path
               inkscape:connector-curvature="0"
               style="stroke:none"
               d="m 2.9375,-6.375 c 0,-0.25 0,-0.265625 -0.234375,-0.265625 C 2.078125,-6 1.203125,-6 0.890625,-6 l 0,0.3125 c 0.203125,0 0.78125,0 1.296875,-0.265625 l 0,5.171875 c 0,0.359375 -0.03125,0.46875 -0.921875,0.46875 l -0.3125,0 0,0.3125 c 0.34375,-0.03125 1.203125,-0.03125 1.609375,-0.03125 0.390625,0 1.265625,0 1.609375,0.03125 l 0,-0.3125 -0.3125,0 c -0.90625,0 -0.921875,-0.109375 -0.921875,-0.46875 z m 0,0"
               id="path5088" />
          </symbol>
        </g>
      </defs>
      <g
         id="textext-df0d6824-2">
        <g
           style="fill:#000000;fill-opacity:1"
           id="g5091">
          <use
             height="1052.3622"
             width="744.09448"
             xlink:href="#textext-df0d6824-1"
             x="223.43201"
             y="134.765"
             id="use5093" />
        </g>
      </g>
    </g>
    <g
       id="g5188"
       transform="matrix(2,0,0,2,-217.07602,94.765414)"
       ns0:preamble="/home/tanakas/Documents/02_PRESENTATIONS/2012_10_01_cell_based_presentation/inkscapeheader.tex"
       ns0:text="2">
      <defs
         id="defs5190">
        <g
           id="g5192">
          <symbol
             id="textext-8fb32fde-0"
             overflow="visible"
             style="overflow:visible">
            <path
               id="path5195"
               d=""
               style="stroke:none"
               inkscape:connector-curvature="0" />
          </symbol>
          <symbol
             id="textext-8fb32fde-1"
             overflow="visible"
             style="overflow:visible">
            <path
               id="path5198"
               d="m 1.265625,-0.765625 1.0625,-1.03125 c 1.546875,-1.375 2.140625,-1.90625 2.140625,-2.90625 0,-1.140625 -0.890625,-1.9375 -2.109375,-1.9375 -1.125,0 -1.859375,0.921875 -1.859375,1.8125 0,0.546875 0.5,0.546875 0.53125,0.546875 0.171875,0 0.515625,-0.109375 0.515625,-0.53125 0,-0.25 -0.1875,-0.515625 -0.53125,-0.515625 -0.078125,0 -0.09375,0 -0.125,0.015625 0.21875,-0.65625 0.765625,-1.015625 1.34375,-1.015625 0.90625,0 1.328125,0.8125 1.328125,1.625 C 3.5625,-3.90625 3.078125,-3.125 2.515625,-2.5 l -1.90625,2.125 C 0.5,-0.265625 0.5,-0.234375 0.5,0 l 3.703125,0 0.265625,-1.734375 -0.234375,0 C 4.171875,-1.4375 4.109375,-1 4,-0.84375 3.9375,-0.765625 3.28125,-0.765625 3.0625,-0.765625 z m 0,0"
               style="stroke:none"
               inkscape:connector-curvature="0" />
          </symbol>
        </g>
      </defs>
      <g
         id="textext-8fb32fde-2">
        <g
           id="g5201"
           style="fill:#000000;fill-opacity:1">
          <use
             id="use5203"
             y="134.765"
             x="223.43201"
             xlink:href="#textext-8fb32fde-1"
             width="744.09448"
             height="1052.3622" />
        </g>
      </g>
    </g>
  </g>
</svg>
